# xmcd
#
# Track frame offsets: 
#        150
#        18798
#        37019
#        53048
#        69654
#        86425
#        108608
#        130074
#        148032
#        167450
#        183932
#        202798
#        215927
#        228982
#
# Disc length: 3360 seconds
#
# Revision: 2
# Processed by: cddbd v1.5.2PL0 Copyright (c) Steve Scherf et al.
# Submitted via: ExactAudioCopy v0.99pb5
#
DISCID=be0d1e0e
DTITLE=Collin Herring - Avoiding The Circus
DYEAR=2002
DGENRE=Folk
TTITLE0=Means Good
TTITLE1=Heaven Never Works Out
TTITLE2=Hardwood Floors
TTITLE3=Drinking Again
TTITLE4=Curfew
TTITLE5=Heavy Heart
TTITLE6=Fair To Middlin'
TTITLE7=Leaving Durango
TTITLE8=Angels
TTITLE9=Train On Her Brain
TTITLE10=Slow Moving Street
TTITLE11=Hard Thing To Fake
TTITLE12=Things I Wanna Do
TTITLE13=Hi On The Side (If This Truck Could Fly)
EXTD=
EXTT0=
EXTT1=
EXTT2=
EXTT3=
EXTT4=
EXTT5=
EXTT6=
EXTT7=
EXTT8=
EXTT9=
EXTT10=
EXTT11=
EXTT12=
EXTT13=
PLAYORDER=
